# xmcd
#
# Track frame offsets:
# 183
# 27095
# 58910
# 81533
# 107533
# 145020
# 171308
# 192133
# 214085
# 244933
#
# Disc length: 3906 seconds
#
#
# Revision: 5
# Processed by: cddbd v1.5PL3 Copyright (c) Steve Scherf et al.
# Submitted via: FreeRIP 2.60 
#
DISCID=8c0f400a
DTITLE=Barry White - The Icon Is Love
DYEAR=1994
DGENRE=R&B
TTITLE0=Practice What You Preach
TTITLE1=There It Is
TTITLE2=I Only Want To Be With You
TTITLE3=The Time Is Right
TTITLE4=Baby's Home
TTITLE5=Come On
TTITLE6=Love Is The Icon
TTITLE7=Sexy Undercover
TTITLE8=Don't You Want To Know?
TTITLE9=Whatever We Had, We Had
EXTD=
EXTT0=
EXTT1=
EXTT2=
EXTT3=
EXTT4=
EXTT5=
EXTT6=
EXTT7=
EXTT8=
EXTT9=
PLAYORDER=
